PathFileType	4	(X/Y/Z)	51_1_11_p1_0-566.trc
DataRate	CameraRate	NumFrames	NumMarkers	Units	OrigDataRate	OrigDataStartFrame	OrigNumFrames
57.0	57.0	6	27	m	57.0	425	567
Frame#	Time	RHip			RKnee			RAnkle			RBigToe			RSmallToe			RHeel			LHip			LKnee			LAnkle			LBigToe			LSmallToe			LHeel			Neck			Head			Nose			RShoulder			RElbow			RWrist			RThumb			RIndex			RPinky			LShoulder			LElbow			LWrist			LThumb			LIndex			LPinky			
		X1	Y1	Z1	X2	Y2	Z2	X3	Y3	Z3	X4	Y4	Z4	X5	Y5	Z5	X6	Y6	Z6	X7	Y7	Z7	X8	Y8	Z8	X9	Y9	Z9	X10	Y10	Z10	X11	Y11	Z11	X12	Y12	Z12	X13	Y13	Z13	X14	Y14	Z14	X15	Y15	Z15	X16	Y16	Z16	X17	Y17	Z17	X18	Y18	Z18	X19	Y19	Z19	X20	Y20	Z20	X21	Y21	Z21	X22	Y22	Z22	X23	Y23	Z23	X24	Y24	Z24	X25	Y25	Z25	X26	Y26	Z26	X27	Y27	Z27	
425	7.456140350877193	0.07711971600899692	0.5166638086507709	0.6078788289919931	0.09039400701567624	0.5910396091231853	1.0493888033555367	0.0964325573325202	0.6786961706775807	1.4650998338670287	0.05879392813164168	0.49191642142409653	1.4967347012934953	0.12399482344109225	0.4842139987323407	1.4877483727929441	0.05549152045205651	0.7682346811718292	1.523880469478335	-0.11769502753646566	0.5178028347639698	0.6268207558329565	-0.12159664870317799	0.6049797220827243	1.0522012359259636	-0.12804803906641235	0.6404241299532738	1.447514572174469	-0.10551474012532111	0.44043657621067184	1.4659702099363545	-0.15616689263375458	0.48241946249115375	1.482400043268447	-0.11509612898373574	0.7036340878985923	1.5042926121767257	-0.028954313230111432	0.4648461554258751	0.08930964849681763	-0.03659469777542272	0.35730194293327466	-0.12908536096468745	-0.0418936582001041	0.312075846929796	-0.016065186606399134	0.12517619273595534	0.44574838997400346	0.16470910369010086	0.16459467005977652	0.4755148744093501	0.43275449163841084	0.05162704285857347	0.40944253580839746	0.610647437598732	-0.008469486250627404	0.3838115607716324	0.6838696043407887	-0.0231372728257999	0.4120367202282623	0.7004870706892876	-0.01084679700386819	0.3994960816724491	0.7114200561984425	-0.16389468217544378	0.4530476519638576	0.17479207024207855	-0.17366350956904889	0.43332738540589005	0.4207338810113092	-0.05177558659166839	0.4102438459264897	0.5952053365782799	0.023129607837464258	0.36806122383655326	0.6540988548969595	0.02843671172548141	0.3627407841945725	0.6716655414733658	-0.005229359716464227	0.36837836999958634	0.6765804858886577
426	7.473684210526316	0.07588387934819946	0.5441686211983383	0.61378487107486	0.08558356442797133	0.6065943682573687	1.0549361252042748	0.09639161742189535	0.6786133257991839	1.4650671503597614	0.05883125154303555	0.49216531314542655	1.4968770602364394	0.12721063017921386	0.49792744731723504	1.4941387985583034	0.05550729577128144	0.7680568063523516	1.5238487956059634	-0.12315488474030757	0.5318444439820111	0.6335008615733225	-0.12164833806484025	0.6049383556170332	1.0523142327479729	-0.12806487596033697	0.6405208588302865	1.4474995977738372	-0.10338360294768327	0.4547524956101492	1.4728843499552542	-0.16104764140984212	0.49648668731497436	1.4862415009225907	-0.11518982601379527	0.7039329048284344	1.5048329662074804	-0.028959055534669206	0.4648238007766171	0.08933455727587986	-0.036534710216147036	0.3572824924392142	-0.12593707411999103	-0.04193076205926346	0.3122320524583205	-0.016000675313892404	0.12489651415698289	0.444411219542181	0.1611085562039673	0.1645810175774059	0.47554588851329793	0.4327279599350922	0.05616685168622765	0.3951694304307977	0.6073325910095948	-0.007851390075355354	0.38476715159780595	0.6802679720064624	-0.023183247857570272	0.4125331586327947	0.7007080844128061	-0.005630836861256593	0.38637760965385726	0.708217055361282	-0.16392696580961585	0.4530304637934797	0.174806724936602	-0.1740712477839756	0.4332342195369326	0.424052837591682	-0.051802760957298084	0.41035664692428586	0.5952826955157107	0.023030233812255076	0.36762425313345903	0.654041781979839	0.028120631559056183	0.36296748831418263	0.6719503634384718	-0.0054221596751632085	0.36836273091122634	0.6765983522004305
427	7.491228070175438	0.07585209603615027	0.5442183321291337	0.6135207768728066	0.08477604690940606	0.604705207703896	1.0499879772976903	0.09640296124128717	0.6788090462266589	1.4650777302638802	0.05884036563390011	0.49207502420482313	1.4967987785304282	0.12717710342657013	0.4978073486339102	1.494043461943061	0.05550706853460003	0.7682234600131425	1.5238282124555311	-0.12699782698518997	0.5296753087906876	0.6331877194894621	-0.12080405261021145	0.6047401059850973	1.048418631335891	-0.12804185685957528	0.640309163853193	1.4477796867411015	-0.10339295514025662	0.4547023547074231	1.4729169333105523	-0.1561578651105915	0.482733854584647	1.4826855152546836	-0.11444053236091711	0.7060786214248238	1.5098217009179977	-0.0316745392149655	0.45211307511995963	0.09243429233892383	-0.036575135734194415	0.3571121854609703	-0.12908108527247106	-0.04188101063334557	0.3121005005271122	-0.01596078386282169	0.12486225619607731	0.44445388581213935	0.16102851645817112	0.1645876252721081	0.47530411957503493	0.43274095478365127	0.05157219314285618	0.4088499517053453	0.6102436883303886	-0.013313418271350854	0.39671488579327124	0.6827589283724607	-0.0298909870768671	0.4237983320343608	0.7026297379521687	-0.005794077012374885	0.3863010598506567	0.70787413641205	-0.16395874168251695	0.4529356445471735	0.17481508402129944	-0.1741237672151792	0.4330003410778401	0.423998608807417	-0.05178729850057547	0.4101940526974137	0.5952517814554524	0.027367018691927987	0.3538096772756986	0.6503903090975391	0.028124773612275007	0.36160004637139365	0.6714366555273681	-0.0015730214073122898	0.37003115936859576	0.6766625077016198
428	7.508771929824562	0.07684502623263006	0.5172600734523738	0.6043941757835638	0.0847498013429372	0.6046699601372789	1.0499955467588766	0.09648508741610637	0.6787743929713292	1.4650852454377263	0.05882113783200837	0.49179673339473917	1.4965087100236005	0.12413301301698411	0.48425581933136147	1.4875592656493473	0.05566037064824221	0.7684328178045093	1.524019836144537	-0.12731745772755548	0.5299344890457145	0.6295095970728285	-0.12167596883356305	0.6048216567983702	1.0523311946236364	-0.12809407118812197	0.6404352087484793	1.4478060276175526	-0.10340061088427975	0.4543963244842479	1.4726371645910283	-0.15514446865358772	0.48204014115553784	1.4787656577706487	-0.11460691616140892	0.7062131360030421	1.5101552650531256	-0.03168309550537974	0.4521441817543614	0.092548291777893	-0.03656890408177016	0.35700850568118847	-0.12901872542126164	-0.04198823148369473	0.3118395342273827	-0.013055688491867952	0.12488934368674146	0.4444464799966018	0.16102258075251194	0.1646524485623303	0.47510203154648806	0.43263207636845163	0.05127072389993421	0.4084764522035126	0.6097988587105074	-0.013627242664494218	0.39843414881506706	0.6877465912245952	-0.03292904043339573	0.4234324645167616	0.7029071534874939	-0.006448201762226813	0.384166196375631	0.7029384788480649	-0.16395730916153783	0.45294826114868897	0.17483041293385654	-0.17414656070906223	0.43284046427810224	0.42392537514002043	-0.05178225073784271	0.4099254157481892	0.5951079677164639	0.02097462167226558	0.37934944571238927	0.656413504399424	0.025751837922982843	0.3723217952244691	0.678327888116656	-0.0014176793831803002	0.36946542271604144	0.6762619308361106
429	7.526315789473684	0.08031493747278184	0.530170719960915	0.6069974178711396	0.08959150665099648	0.5891324686803922	1.0448274201294805	0.09645871858853144	0.6787671265811309	1.4651234474454395	0.05883372905320031	0.4916188050822796	1.4965964207885463	0.12415458101348338	0.48443267497443815	1.4876850687150671	0.05565386187340215	0.7684734405176991	1.524106783184384	-0.12682709425511526	0.5320210324570668	0.6344037335661046	-0.12093779618265911	0.6047086674259968	1.0485623754300322	-0.1309718730729984	0.6381532475780645	1.4425414476073077	-0.10334734923008997	0.4542845884074686	1.4726641713762672	-0.15512107171182904	0.4820153963187663	1.4787999957307603	-0.11460348025020994	0.7061975970531568	1.5102009250519575	-0.031679609779677285	0.45207568850216584	0.0925043671887122	-0.036552056624890916	0.35689719989146823	-0.1290981160779754	-0.041955139429994674	0.3122224298926822	-0.015858982646214572	0.12487366819766775	0.4443618404156644	0.16100539350763496	0.1639905489143785	0.4736502774919238	0.4289213891422561	0.0512743563336853	0.40877344035657975	0.610018600678295	-0.021731602342082476	0.4100673929437194	0.6861636168951215	-0.03360137865538247	0.42355637542930763	0.703338162820176	-0.008751790514898604	0.3839077090098962	0.7076715386638742	-0.16572597360317243	0.44036906561223166	0.17413243854633254	-0.17419796310250235	0.43297440205021903	0.42385610331583284	-0.05181639230416318	0.41006522694762676	0.5949778142723444	0.020651396222063367	0.3633736455017464	0.6477784285658637	0.020157954185257274	0.37058116026041527	0.673117168987196	-0.0011370114851629702	0.368608936152513	0.6754617910670282
430	7.543859649122807	0.07172335768989005	0.5425555840020023	0.60986050452207	0.0903604501950096	0.590916159002582	1.049699314248819	0.09643542424200448	0.6786977051654485	1.4651940277927382	0.0588564043104181	0.4919815948182956	1.496813323615533	0.12414579796321967	0.48426558692411364	1.4875942821326313	0.055669750267533964	0.7684548379894657	1.524188422304211	-0.12690327795313122	0.5319751993325127	0.6344270265548412	-0.12184694324311347	0.6049975855677616	1.052759076623987	-0.1280831125713375	0.6403510574545498	1.4479117309460763	-0.1033444182037098	0.45442081970758375	1.472664119790658	-0.15615171877226458	0.48257808208542247	1.4826469402152949	-0.11443220054580328	0.7062005172237719	1.5097626543433549	-0.03171640913080531	0.45211422354181446	0.09263084645284379	-0.03188234908553532	0.3450865973008776	-0.1284398089986435	-0.04197411347915999	0.3119427290838948	-0.012969062562692254	0.124885424158912	0.4443967816760968	0.1610127881529709	0.16415519150923105	0.4751123475952224	0.4364471581406648	0.05120426258933286	0.4085533331840426	0.6098554110305857	-0.01608876887227362	0.39724280601409456	0.683433760627205	-0.0332064826415565	0.42336412626374836	0.7032939245403022	-0.008832603815671304	0.383443516859716	0.7073397895370428	-0.16592958784173203	0.4404755472216599	0.17024550238998026	-0.17422395221201534	0.4329107706876106	0.42374017218537563	-0.05175900675787841	0.40987273637476773	0.5949336682714575	0.02585683799536465	0.3606544877236457	0.6490649484233466	0.026014455923122362	0.3686988121312768	0.6718660684347746	-0.0008713984793615035	0.3677270692349638	0.6749224469101237
